<svg xmlns="http://www.w3.org/2000/svg" xmlns:xlink="http://www.w3.org/1999/xlink" version="1.1" x="0px" y="0px" viewBox="0 0 100 125" enable-background="new 0 0 100 100" xml:space="preserve"><path class="tiger" d="M81.3,28.6L84,4.1L60.9,17.6l-11-1.1l-10.8,1.2L16,4.2l2.7,24.6L8,74.7l42.1,19.7L92,74.5L81.3,28.6z M50.1,90L12.6,72.5  l1.2-5.1h18.9L15,62.1l1-4.4l18,1.5l-16.7-7L22.8,29l-1.9-17.3l17.4,10.1l11.7-1.3l11.9,1.2l17.4-10.1l-1.9,17.3l5.4,23.3l-16.6,7  L84,57.8l1,4.4l-17.6,5.2h18.8l1.2,4.9L50.1,90z"/><polygon points="61.9,66.8 50.1,62.5 38.3,66.8 48.1,75.3 50.1,85.2 50.3,85.2 52.1,75.3 "/><path d="M40.5,48.1c-0.6,0.8-1.5,1.2-2.6,1.2c-1.8,0-3.3-1.5-3.3-3.3c0-0.1,0-0.2,0-0.3c-2.4,0.6-4.2,2.7-4.2,5.3  c0,3,2.4,5.4,5.4,5.4c3,0,5.4-2.4,5.4-5.4C41.3,49.9,41,48.9,40.5,48.1z"/><path d="M66.1,49.4c-1.8,0-3.3-1.5-3.3-3.3c0-0.1,0-0.3,0-0.4c-2.5,0.5-4.3,2.7-4.3,5.3c0,3,2.4,5.4,5.4,5.4c3,0,5.4-2.4,5.4-5.4  c0-1-0.3-2-0.8-2.8C68,48.9,67.1,49.4,66.1,49.4z"/></svg>
